<svg xmlns="http://www.w3.org/2000/svg" viewBox="0 0 119.65 120.71"><defs><style>.cls-1{fill:#3e362e;}</style></defs><g id="Lager_2" data-name="Lager 2"><g id="Layer_1" data-name="Layer 1"><path class="cls-1" d="M89.88,35.69c-1.56-2.08-5.08-2.87-8.34-.58a26.08,26.08,0,0,0-6.06,6.12,44.91,44.91,0,0,1-8.27-3.35c-12.64-6.39-21-2.09-23.33-.65a11.49,11.49,0,0,0-5.67,10.25,10.13,10.13,0,0,0,9,9.65,9.37,9.37,0,0,0,10.48-6.91,1.23,1.23,0,0,0-2.34-.78,6.92,6.92,0,0,1-7.82,5.21,7.66,7.66,0,0,1-6.84-7.3,9.12,9.12,0,0,1,4.59-8.08c6.26-4,14.92-2.28,20.91.79a50.41,50.41,0,0,0,8,3.25,32.5,32.5,0,0,0-1.82,3.33c0,.06-.07.13-.07.19a10.83,10.83,0,0,0-9,3c-3,2.93-4.56,7.82-1.18,12.25a18.73,18.73,0,0,0,1.16,1.5c-1.57,2.86-3,5.53-4.11,7.62A36,36,0,0,1,47.92,84.49a9.1,9.1,0,0,1-2.34-3.61c-1.18-3.52-.79-6.78,1.17-9.25a8.13,8.13,0,0,1,7-3.13A1.24,1.24,0,1,0,54,66a10.6,10.6,0,0,0-9.19,4c-2.54,3.12-3.09,7.23-1.54,11.59a12.31,12.31,0,0,0,2.54,4.17,18.28,18.28,0,0,1-6.12,2c-4.89.52-9.45-1.5-13.1-5.87a1.24,1.24,0,0,0-1.76,0,1.26,1.26,0,0,0-.13,1.66c3.78,4.5,8.41,6.78,13.42,6.78.59,0,1.24-.07,1.83-.07a19.89,19.89,0,0,0,7.75-2.6A22.49,22.49,0,0,0,51,89.74a19.47,19.47,0,0,0,8.08,1.76,20.86,20.86,0,0,0,7.62-1.43c5.15-2,8.74-6.06,9.58-10.88a12,12,0,0,0-4.23-11.4c-1-.85-2-1.63-3-2.42s-1.94-1.49-2.8-2.18c2.48-4.63,5.15-9.58,7.1-13.43h0a8,8,0,0,1,2.08,1.31A4.72,4.72,0,0,1,77,56.21a4.52,4.52,0,0,1-4.11,3.13,1.29,1.29,0,0,0-1.17,1.3,1.34,1.34,0,0,0,1.3,1.18A6.84,6.84,0,0,0,79.28,57,7,7,0,0,0,77,49.18a10.36,10.36,0,0,0-2.54-1.57,31.14,31.14,0,0,1,2-3.51c6,1.3,9.64-.07,11.8-1.76,2.86-2.22,2.86-5,1.56-6.65M67.6,67.42a31.42,31.42,0,0,1,2.86,2.28,9.5,9.5,0,0,1,3.39,9.12c-.71,4-3.71,7.3-8,9A17.45,17.45,0,0,1,52,87.56a17.1,17.1,0,0,1-2.15-1.24A39.05,39.05,0,0,0,61.34,72.57c1-2,2.35-4.43,3.78-7l2.48,1.89m-3.13-6c-.2-.23-.4-.47-.58-.72-2.61-3.45-1.18-7,.91-9a8.71,8.71,0,0,1,6.12-2.48c-1.82,3.59-4.23,8-6.45,12.19m22.35-21c-2,1.57-5,2.09-8.73,1.44A22.43,22.43,0,0,1,83,37.19c2.22-1.56,4.24-.91,5,.07s.26,2.08-1.11,3.19"/><path class="cls-1" d="M58,120.71c-.94,0-1.88,0-2.83-.07A57.95,57.95,0,0,1,17.81,21,.82.82,0,0,1,19,21h0a.82.82,0,0,1,0,1.15h0a56.32,56.32,0,1,0,87.61,69.12A.84.84,0,0,1,107.7,91a.82.82,0,0,1,.29,1.12A57.82,57.82,0,0,1,58,120.71Z"/><path class="cls-1" d="M26.14,11.05a2.39,2.39,0,0,1-.57,3.35l-.08,0-1.85,1.27,2,2.84-1.36.93L19.54,12.6l3.19-2.19a2.44,2.44,0,0,1,3.4.62ZM24.86,12a1,1,0,0,0-1.37-.34l-.15.11-1.66,1.15,1.18,1.72,1.66-1.14A1,1,0,0,0,25,12.12.86.86,0,0,0,24.86,12Z"/><path class="cls-1" d="M29.15,8.3l.91,1.79L32.7,8.75,33.36,10l-2.65,1.34.91,1.79,3.06-1.55.65,1.26-4.51,2.29L27.05,7.71l4.51-2.28.65,1.29Z"/><path class="cls-1" d="M38.71,8l-1.31.45,1.12,3.26L37,12.21l-2.7-7.9,3.65-1.25A2.44,2.44,0,0,1,41,4.53a.19.19,0,0,1,0,.07,2.36,2.36,0,0,1-.84,2.72l2.9,2.79-1.66.57ZM37,7.12l1.89-.65a1,1,0,0,0,.78-1.18.75.75,0,0,0-.05-.16,1.05,1.05,0,0,0-1.33-.66l-.07,0-1.9.65Z"/><path class="cls-1" d="M44.93,2.68l.39,2,3-.6.28,1.42-2.91.57.63,3.39-1.59.32-1.63-8.2,5-1L48.28,2Z"/><path class="cls-1" d="M52.33,1.63l.14,2,3-.21.1,1.44-3,.21.14,2,3.37-.19.1,1.44-5,.36L50.64.35l5-.35.1,1.44Z"/><path class="cls-1" d="M57.44,4.05A4.27,4.27,0,0,1,62,.05h0a4.31,4.31,0,0,1,3.16,1.73l-1.28.9a2.65,2.65,0,0,0-2-1.1A2.69,2.69,0,0,0,59,4.05a.28.28,0,0,1,0,.09,2.69,2.69,0,0,0,2.44,2.92h.09a2.6,2.6,0,0,0,2.11-.82l1.14,1.06A4.28,4.28,0,0,1,57.42,4Z"/><path class="cls-1" d="M72.56,3.34l-2.1-.46L69.05,9.62l-1.58-.33,1.41-6.71-2.1-.44.3-1.43,5.78,1.17Z"/><path class="cls-1" d="M79.57,5.68l-.75,1.86,2.75,1.1L81,10,78.28,8.88,77,12.08l-1.51-.6L78.6,3.73l4.68,1.89L82.73,7Z"/><path class="cls-1" d="M85.5,6.76l1.43.76-3.87,7.36-1.44-.76Z"/><path class="cls-1" d="M93.14,13.05l-1.8-1.17-3.77,5.77-1.35-.89L90,11l-1.8-1.18L89,8.6l5,3.24Z"/><path class="cls-1" d="M101.4,23.52l-3.3,3.3L97.27,26l.26-.48a4.42,4.42,0,0,1-2-1.14,4.29,4.29,0,1,1,7.31-2.69l-1.56-.16a2.61,2.61,0,0,0-.77-2.13,2.75,2.75,0,0,0-3.93,3.84,2.76,2.76,0,0,0,2.08.83l.69-.69L98,22l1-1Z"/><path class="cls-1" d="M101.43,26.43l4.49-3.22,1,1.33-4.26,3a1.78,1.78,0,0,0,1.92,3l.15-.11L109,27.38l.94,1.31-4.49,3.22a3.12,3.12,0,0,1-4.37-1A3.1,3.1,0,0,1,101.43,26.43Z"/><path class="cls-1" d="M107.43,39.05,105.87,36l-1.35.18-.8-1.59,8.88-.91.7,1.39-6,6.61-.8-1.6Zm1-1,2.75-2.8-3.89.54Z"/><path class="cls-1" d="M111.9,44.55l-.43-1.31-3.28,1.08-.51-1.54,7.93-2.62,1.21,3.72A2.44,2.44,0,0,1,115.28,47a2.38,2.38,0,0,1-2.72-.88L109.74,49l-.55-1.68Zm.87-1.74.63,1.91a1,1,0,0,0,1.18.79l.16,0a1.06,1.06,0,0,0,.66-1.35l0,0-.63-1.91Z"/><path class="cls-1" d="M112.13,55.15l-.56-3.43-1.35-.23-.29-1.76,8.76,1.79.25,1.54-7.72,4.51-.29-1.77Zm1.28-.68,3.46-1.86L113,52Z"/><path class="cls-1" d="M119.65,65.82h-8.37V64.61l5.51-4.3h-5.51V58.7h8.35v1.18l-5.5,4.3h5.51Z"/><path class="cls-1" d="M117.12,74.06l.31-2.13-6.82-1,.23-1.6,6.82,1L118,68.2l1.44.21-.85,5.85Z"/><path class="cls-1" d="M116.2,77.88l-1.92-.56-.78,2.86-1.4-.39.79-2.85L111,76.41l-.91,3.3-1.4-.38L110,74.45l8,2.22-1.34,4.88-1.4-.39Z"/><path class="cls-1" d="M113.75,85.2l-1.84-.77-1.14,2.73-1.34-.55,1.14-2.73-1.85-.76-1.32,3.16-1.33-.56L108,81.06l7.7,3.21-1.94,4.61-1.33-.55Z"/></g></g></svg>