<svg xmlns="http://www.w3.org/2000/svg" viewBox="0 0 377.14 427.05"><defs><style>.cls-1{fill:#3e362e;}.cls-2{fill:none;}</style></defs><g id="Layer_2" data-name="Layer 2"><g id="Layer_1-2" data-name="Layer 1"><path class="cls-1" d="M247.79,312.28q-6.42.57-13,.58a141.5,141.5,0,0,1-112.64-55.31,1.16,1.16,0,0,1,1.84-1.42,139.16,139.16,0,0,0,110.8,54.41q6.58,0,13-.6"/><path class="cls-1" d="M348.83,251.68a139.21,139.21,0,0,0,26-81.15c0-77.2-62.81-140-140-140a139,139,0,0,0-112,56,1.16,1.16,0,0,1-1.63.23,1.15,1.15,0,0,1-.23-1.62,141.22,141.22,0,0,1,113.9-57c78.49,0,142.34,63.85,142.34,142.33a141.58,141.58,0,0,1-28.44,85.26"/><path class="cls-1" d="M247.81,301.43q-6.42.63-13,.63a130.87,130.87,0,0,1-103.38-50.2,1.16,1.16,0,0,1,1.83-1.43A128.55,128.55,0,0,0,234.8,299.74a130.12,130.12,0,0,0,13-.65"/><path class="cls-1" d="M348.76,231.39A129.2,129.2,0,0,0,131.46,93a1.16,1.16,0,1,1-1.86-1.4A130.56,130.56,0,0,1,234.8,39c72.53,0,131.54,59,131.54,131.53a130.81,130.81,0,0,1-17.58,65.64"/><rect class="cls-1" x="232.48" y="8.61" width="4.65" height="20.75"/><path class="cls-1" d="M250.36,9.29H218.24a4.65,4.65,0,0,1,0-9.29h32.12a4.65,4.65,0,1,1,0,9.29Z"/><path class="cls-1" d="M234.3,175.1a1.4,1.4,0,0,1-.4-.07,1.17,1.17,0,0,1-.69-1.5l34.65-93.64a1.16,1.16,0,1,1,2.18.81l-34.65,93.64A1.16,1.16,0,0,1,234.3,175.1Z"/><path class="cls-1" d="M234.8,301.31a1.16,1.16,0,0,1-1.16-1.17V283a1.16,1.16,0,1,1,2.32,0v17.17A1.16,1.16,0,0,1,234.8,301.31Z"/><path class="cls-1" d="M234.8,57.69a1.16,1.16,0,0,1-1.16-1.16V40.92a1.16,1.16,0,1,1,2.32,0V56.53A1.16,1.16,0,0,1,234.8,57.69Z"/><path class="cls-1" d="M363.82,165.15H347.24a1.17,1.17,0,0,1,0-2.33h16.58a1.17,1.17,0,0,1,0,2.33Z"/><path class="cls-1" d="M317.77,95.8a1.14,1.14,0,0,1-.84-.36,1.16,1.16,0,0,1,0-1.65l11.86-11.3a1.16,1.16,0,0,1,1.61,1.68L318.57,95.48A1.18,1.18,0,0,1,317.77,95.8Z"/><path class="cls-1" d="M145.16,266.59a1.19,1.19,0,0,1-.84-.36,1.17,1.17,0,0,1,0-1.65l12.83-12.23a1.18,1.18,0,0,1,1.65,0,1.17,1.17,0,0,1,0,1.64L146,266.26A1.13,1.13,0,0,1,145.16,266.59Z"/><path class="cls-1" d="M159.91,87.82a1.17,1.17,0,0,1-.84-.36L147.4,75.21a1.16,1.16,0,0,1,0-1.64,1.17,1.17,0,0,1,1.65,0l11.67,12.25a1.16,1.16,0,0,1,0,1.64A1.12,1.12,0,0,1,159.91,87.82Z"/><circle class="cls-1" cx="234.8" cy="170.53" r="7.81"/><path class="cls-1" d="M54.52,154.25,47,146.68a27.87,27.87,0,1,1,3.2-3.48l7.74,7.63Zm-11-11.09L37,136.63l3.2-3.2,6.39,6.25a22.83,22.83,0,1,0-3.12,3.48Z"/><path class="cls-1" d="M68.06,135.38V98.8h5v35.84c0,8.24,6.46,14.45,15.16,14.45s15.21-6.21,15.21-14.45V98.8h5v36.58c0,10.69-8.59,18.69-20.21,18.69S68.06,146.07,68.06,135.38Z"/><path class="cls-1" d="M123,98.8h5v54.56h-5Z"/><path class="cls-1" d="M139.53,126.08a27.89,27.89,0,0,1,28-28,29.12,29.12,0,0,1,19.79,8.2l-3.59,3.52a23,23,0,1,0,0,32.54l3.59,3.51a29.13,29.13,0,0,1-19.79,8.21A27.89,27.89,0,0,1,139.53,126.08Z"/><path class="cls-1" d="M226.55,153.36l-24.22-27.07v27.07h-5V98.8h5v26.14L225.7,98.8h6.43l-24,26.81L233,153.36Z"/><path class="cls-1" d="M38.79,232.06l7.1-7.25c3.66,4.76,7.68,7.49,13,7.49,4.91,0,7.89-2.48,7.89-6.5,0-4.9-5.08-6.78-11.12-9.2-6.64-2.7-14.42-6.21-14.42-16s7.89-15.24,17-15.24c7.35,0,13,3.38,17.19,7.89L69,199.7c-3.91-4.37-7.42-5.54-10.65-5.54-3.66,0-6.54,2-6.54,5.54,0,4.47,4.87,6.25,10.19,8.41,7.11,2.95,15.28,6.61,15.28,17.09S68.73,241.36,59,241.36A27.1,27.1,0,0,1,38.79,232.06Z"/><path class="cls-1" d="M85.92,186.09H96.51v54.56H85.92Z"/><path class="cls-1" d="M148.58,189.72l-28.2,41.38H147.7v9.55H104.43v-3.76l28.17-41.24H106.49v-9.56h42.09Z"/><path class="cls-1" d="M167.37,195.54v13.11h19.4v9.45h-19.4v13.1h22.45v9.45h-33V186.09h33v9.45Z"/><path class="cls-1" d="M203.07,188h-2.8v9h-2.11v-9h-2.81v-1.91h7.73V188Z"/><path class="cls-1" d="M215.79,186.06V197h-2.11v-6.71l-3.54,5.63-3.51-5.61V197h-2.12V186.06h1.69l3.94,6.21,4-6.21Z"/><path class="cls-1" d="M272.43,275.78a2.74,2.74,0,0,1-1.06,2.33,5.28,5.28,0,0,1-3.18.8,9.73,9.73,0,0,1-1.85-.15,7.3,7.3,0,0,1-1.44-.43v-2.24a10.35,10.35,0,0,0,1.71.6,6.91,6.91,0,0,0,1.67.24c1,0,1.47-.29,1.47-.86a.71.71,0,0,0-.19-.52,3,3,0,0,0-.68-.45c-.32-.17-.75-.37-1.28-.59a8.12,8.12,0,0,1-1.69-.89,2.54,2.54,0,0,1-.78-.94,3.19,3.19,0,0,1-.24-1.31,2.38,2.38,0,0,1,1-2.05,5.06,5.06,0,0,1,2.92-.72,8.25,8.25,0,0,1,3.49.78l-.82,2c-.49-.21-1-.39-1.39-.53a4.61,4.61,0,0,0-1.33-.2c-.8,0-1.2.22-1.2.65a.77.77,0,0,0,.39.63,10.44,10.44,0,0,0,1.69.79,8.18,8.18,0,0,1,1.71.88,2.65,2.65,0,0,1,.8.95A2.9,2.9,0,0,1,272.43,275.78Z"/><path class="cls-1" d="M274.13,266.22c0-.89.49-1.33,1.47-1.33s1.48.44,1.48,1.33a1.28,1.28,0,0,1-.37,1,1.59,1.59,0,0,1-1.11.35C274.62,267.55,274.13,267.1,274.13,266.22ZM277,278.73h-2.71v-9.94H277Z"/><path class="cls-1" d="M286.72,278.73h-7.85v-1.6l4.6-6.27h-4.33v-2.07h7.42v1.76l-4.48,6.11h4.64Z"/><path class="cls-1" d="M292.73,278.91a5.1,5.1,0,0,1-3.75-1.33,5,5,0,0,1-1.36-3.75,5.54,5.54,0,0,1,1.25-3.87,4.47,4.47,0,0,1,3.46-1.36,4.38,4.38,0,0,1,3.28,1.2,4.56,4.56,0,0,1,1.18,3.32v1.31h-6.42a2.61,2.61,0,0,0,.69,1.81,2.4,2.4,0,0,0,1.79.65,7.14,7.14,0,0,0,1.7-.19,8.18,8.18,0,0,0,1.67-.59v2.1a6.83,6.83,0,0,1-1.52.53A10,10,0,0,1,292.73,278.91Zm-.38-8.38a1.72,1.72,0,0,0-1.36.55,2.57,2.57,0,0,0-.56,1.55h3.81a2.28,2.28,0,0,0-.52-1.55A1.77,1.77,0,0,0,292.35,270.53Z"/><path class="cls-1" d="M298.61,270.72a1.48,1.48,0,0,1,.4-1.13,1.64,1.64,0,0,1,1.16-.38,1.59,1.59,0,0,1,1.15.39,1.75,1.75,0,0,1,0,2.24,1.84,1.84,0,0,1-2.29,0A1.48,1.48,0,0,1,298.61,270.72Zm0,6.13a1.47,1.47,0,0,1,.4-1.13,1.92,1.92,0,0,1,2.31,0,1.48,1.48,0,0,1,.4,1.12,1.44,1.44,0,0,1-.41,1.1,1.54,1.54,0,0,1-1.14.41A1.56,1.56,0,0,1,299,278,1.47,1.47,0,0,1,298.61,276.85Z"/><path class="cls-1" d="M317.21,279c-1,0-2.39-.44-2.39-1.7a4.88,4.88,0,0,1,.41-1.65l1.23-3.24a6,6,0,0,0,.52-1.74.74.74,0,0,0-.85-.81c-.83,0-1.69.93-2.43,2.09l-2.23,6.82h-2.41L311.3,272a5.68,5.68,0,0,0,.36-1.37.76.76,0,0,0-.85-.81c-1,0-2.06,1.33-2.71,2.49L306,278.73h-2.42l2.29-6.73a13.34,13.34,0,0,0,.52-1.89c0-.42-.12-.54-.46-.54-.93,0-1.56,1.06-2.24,2.8l-.42-.14c.75-1.83,1.48-3.16,3-3.16a1.84,1.84,0,0,1,2.07,1.93l.09,0a3.84,3.84,0,0,1,2.89-1.95,2.23,2.23,0,0,1,2.39,1.95h.08c.71-.93,1.64-1.95,2.91-1.95a2.38,2.38,0,0,1,2.37,2.3,5.9,5.9,0,0,1-.42,1.56l-1.2,3.14a7.9,7.9,0,0,0-.54,1.79c0,.5.21.58.6.58.91,0,1.6-1,2.29-2.74l.39.12C319.47,277.67,318.7,279,317.21,279Z"/><path class="cls-1" d="M328.91,270.58c0,2-2.41,3.29-5.28,3.7a10.84,10.84,0,0,0-.29,2.23c0,1.2.29,1.83,1.23,1.83,1.55,0,2.64-1.25,3.47-2.79l.37.19c-1.27,2.41-2.72,3.28-4.16,3.28a3.09,3.09,0,0,1-3.4-3.32c0-2.37,2.26-6.63,6.13-6.63C328,269.07,328.91,269.61,328.91,270.58Zm-5.2,3.27c2.48-.48,3.25-2.1,3.29-3.14,0-.85-.17-1.23-.63-1.23C325.36,269.48,324.25,271.66,323.71,273.85Z"/><path class="cls-1" d="M330.49,269.69h-.34v-1.4h-.48V268H331v.31h-.49Zm1.39,0-.43-1.29h0v1.29h-.33V268h.51l.42,1.26.45-1.26H333v1.71h-.34V268.4h0l-.46,1.29Z"/><path class="cls-1" d="M248.08,360.83a.63.63,0,0,1-.63-.55,27.1,27.1,0,0,1-.24-3.6v-156a27.33,27.33,0,0,1,27.3-27.3h47.58a27.33,27.33,0,0,1,27.3,27.3v108.5a.64.64,0,0,1-1.28,0V200.63a26.05,26.05,0,0,0-26-26H274.51a26.06,26.06,0,0,0-26,26V356.68a26.12,26.12,0,0,0,.23,3.43.65.65,0,0,1-.55.72Z"/><path class="cls-1" d="M297.22,384h-4.53a.64.64,0,1,1,0-1.27h4.53a.64.64,0,0,1,0,1.27Z"/><path class="cls-1" d="M322.09,384h-6.67a.64.64,0,1,1,0-1.27h6.67a26.05,26.05,0,0,0,26-26v-20a.64.64,0,0,1,1.28,0v20A27.33,27.33,0,0,1,322.09,384Z"/><path class="cls-1" d="M284.37,357H257.2a2.51,2.51,0,0,1-2.51-2.51V193.75a2.51,2.51,0,0,1,2.51-2.51h83a2.52,2.52,0,0,1,2.51,2.51v112.5a.64.64,0,0,1-1.28,0V193.75a1.24,1.24,0,0,0-1.23-1.24h-83a1.25,1.25,0,0,0-1.24,1.24V354.46a1.24,1.24,0,0,0,1.24,1.24h27.17a.64.64,0,0,1,0,1.27Z"/><path class="cls-1" d="M340.23,357H311a.64.64,0,1,1,0-1.27h29.28a1.23,1.23,0,0,0,1.23-1.24V333.67a.64.64,0,0,1,1.28,0v20.79A2.51,2.51,0,0,1,340.23,357Z"/><path class="cls-2" d="M205.61,376.9A190.38,190.38,0,0,1,221,360.42c9.73-9.37,22.54-2.37,24-2s54.22,28.37,54.22,28.37a17.42,17.42,0,0,1,1.06,14.76q7.35-8.52,14.71-17s8.89-7.48-2.38-26.24-24.08-48.46-24.08-48.46a16.7,16.7,0,0,0-12-1.88,15.52,15.52,0,0,0-5.47,2.55,16.57,16.57,0,0,1,8.32-3,16.79,16.79,0,0,1,8.95,2.24c14.64,7.89,74.31,33,74.31,33l13.53-20.88-69.28-31.79s-10.56-5-17.5,2.37-18.33,18-18.33,18a15.89,15.89,0,0,0-1.89,13.29c2.37,7.35,28,54.8,31.55,67.38s-5.22,16.13-14,14-47.92-24.44-55.28-27-26.57-11.15-28,5.22c0,7.12,2.61,18.27,19,42.71,6.88-7.36,18.5-17.8,18.5-17.8l-17.6-33a29.8,29.8,0,0,0-8.61-1.48,13,13,0,0,0-5.79.88A10.93,10.93,0,0,0,205.61,376.9Z"/><path class="cls-1" d="M342.1,334.3a.75.75,0,0,1-.26-.05c-32.86-14.88-52.6-23.57-54.16-23.85a22.23,22.23,0,0,1-2.48-.67c-3.92-1.18-9.85-3-14.24,1.21a.64.64,0,0,1-.88-.92c4.93-4.69,11.54-2.7,15.49-1.5.93.28,1.73.52,2.33.63,2.17.38,30.81,13.23,54.46,23.94a.63.63,0,0,1,.32.84A.65.65,0,0,1,342.1,334.3Z"/><path class="cls-1" d="M348.75,337.32a.58.58,0,0,1-.26-.06l-6.65-3a.65.65,0,0,1-.32-.85.63.63,0,0,1,.84-.31l6.65,3a.63.63,0,0,1,.32.84A.64.64,0,0,1,348.75,337.32Z"/><path class="cls-1" d="M362.33,343.56l-.5-.23s-5.42-2.48-13.34-6.07a.64.64,0,1,1,.52-1.16l12.85,5.84,12.83-19.8-26.2-12a.64.64,0,0,1-.32-.84A.65.65,0,0,1,349,309l27.54,12.64Z"/><path class="cls-1" d="M221.8,427.05l-.45-.67c-16.92-25.25-19.09-36.28-19.09-43.06.37-4.2,1.88-7.14,4.5-8.8,6-3.81,16.31,0,22.46,2.29l1.89.69c3.1,1.1,11.52,5.52,21.26,10.63,13.55,7.11,28.9,15.17,34,16.4s9.45.44,11.87-2.08c2.28-2.36,2.75-6.21,1.36-11.13-2.09-7.37-12-27.28-20-43.27C273.87,336.77,269,327,268,324a16.4,16.4,0,0,1,2-13.85l.08-.09c.12-.11,11.46-10.75,18.3-18,7.18-7.6,18.12-2.56,18.23-2.51L349,309a.64.64,0,0,1-.53,1.16l-42.41-19.46c-.11-.05-10.24-4.7-16.77,2.23s-17.48,17.23-18.31,18a15.38,15.38,0,0,0-1.78,12.67c1,3,5.82,12.67,11.44,23.91,8,16,18,36,20.13,43.5,1.92,6.79.15,10.47-1.67,12.36-2.74,2.84-7.64,3.75-13.09,2.43-5.21-1.27-20.64-9.37-34.25-16.51-9.3-4.88-18.08-9.49-21.1-10.56l-1.91-.7c-1.43-.53-3.1-1.15-4.89-1.74,2.31,5,11.85,22.33,17.06,31.66l.25.45-.38.34c-.12.1-11.68,10.5-18.47,17.75Zm-8.55-52.88a10.81,10.81,0,0,0-5.81,1.42c-2.27,1.44-3.58,4.06-3.91,7.79,0,6.48,2.11,17.13,18.44,41.63,6.15-6.49,15.62-15.1,17.61-16.91-2.09-3.75-15.71-28.21-17.29-32.34A32.83,32.83,0,0,0,213.25,374.17Z"/><path class="cls-1" d="M299.7,402.18a.61.61,0,0,1-.42-.16.63.63,0,0,1-.06-.89L314,384a6.19,6.19,0,0,0,.9-1,.63.63,0,0,1,.89-.15.64.64,0,0,1,.14.89,6.94,6.94,0,0,1-1.07,1.23l-14.68,17A.64.64,0,0,1,299.7,402.18Z"/><path class="cls-1" d="M315.42,384a.64.64,0,0,1-.52-1c1.84-2.57,5.18-10.08-3.41-24.38-.36-.61-.73-1.22-1.09-1.85a.64.64,0,0,1,1.1-.64l1.08,1.83c9,14.95,5.34,23,3.35,25.78A.63.63,0,0,1,315.42,384Z"/><path class="cls-1" d="M311,357.07a.65.65,0,0,1-.55-.32c-10.89-18.62-22.91-46.41-23-46.69a.63.63,0,0,1,.33-.83.64.64,0,0,1,.84.33c.12.28,12.11,28,23,46.55a.65.65,0,0,1-.23.87A.62.62,0,0,1,311,357.07Z"/><path class="cls-1" d="M298.64,387.42a.64.64,0,0,1-.3-.08c-14.52-7.7-52.53-27.81-54.09-28.32a9.11,9.11,0,0,1-1-.38c-3.47-1.42-14-5.76-22.35,2.24a190.5,190.5,0,0,0-15.32,16.42.64.64,0,0,1-1-.79A189.86,189.86,0,0,1,220,360c5.9-5.69,13.88-6.54,23.71-2.5.37.15.72.29.84.32,1.46.36,49,25.56,54.37,28.43a.64.64,0,0,1-.3,1.2Z"/><path class="cls-1" d="M353.53,339.25a.58.58,0,0,1-.35-.11.64.64,0,0,1-.18-.88l13.59-20.48a.64.64,0,0,1,1.06.7L354.06,339A.63.63,0,0,1,353.53,339.25Z"/><path class="cls-1" d="M329.64,328.67a.63.63,0,0,1-.51-1l14.71-20.12a.64.64,0,0,1,1,.75l-14.71,20.12A.65.65,0,0,1,329.64,328.67Z"/><path class="cls-1" d="M349.46,323.56a.62.62,0,0,1-.36-.12.63.63,0,0,1-.16-.88l6.73-9.58a.64.64,0,1,1,1.05.73L350,323.29A.66.66,0,0,1,349.46,323.56Z"/><path class="cls-1" d="M305.76,318a.65.65,0,0,1-.41-.15.64.64,0,0,1-.07-.9l16.59-19.55a.62.62,0,0,1,.89-.07.63.63,0,0,1,.08.89l-16.59,19.55A.65.65,0,0,1,305.76,318Z"/><path class="cls-1" d="M325.67,312.51a.63.63,0,0,1-.48-1l7.69-9a.62.62,0,0,1,.89-.07.64.64,0,0,1,.07.9l-7.69,9A.61.61,0,0,1,325.67,312.51Z"/><path class="cls-1" d="M285.69,309.72a.63.63,0,0,1-.45-.19.64.64,0,0,1,0-.9l19.65-19.52a.63.63,0,0,1,.9,0,.64.64,0,0,1,0,.9l-19.64,19.53A.63.63,0,0,1,285.69,309.72Z"/><path class="cls-1" d="M306.63,301.51a.61.61,0,0,1-.42-.16.64.64,0,0,1,0-.9l6.51-7.29a.64.64,0,0,1,.9-.05.64.64,0,0,1,.05.9l-6.51,7.29A.64.64,0,0,1,306.63,301.51Z"/><path class="cls-1" d="M271.63,331.29a.65.65,0,0,1-.55-.32.64.64,0,0,1,.24-.87l20.39-11.75a.64.64,0,0,1,.87.24.63.63,0,0,1-.24.86L272,331.2A.62.62,0,0,1,271.63,331.29Z"/><path class="cls-1" d="M281.28,350.79a.65.65,0,0,1-.55-.32.63.63,0,0,1,.23-.87l20-11.85a.63.63,0,0,1,.65,1.09l-20,11.86A.62.62,0,0,1,281.28,350.79Z"/><path class="cls-1" d="M290.26,369a.63.63,0,0,1-.34-1.17L310.11,355a.63.63,0,0,1,.87.19.64.64,0,0,1-.19.88L290.6,368.86A.69.69,0,0,1,290.26,369Z"/><path class="cls-1" d="M299.82,390.62a.65.65,0,0,1-.51-.24.64.64,0,0,1,.11-.89l17.92-14.08a.64.64,0,0,1,.89.11.63.63,0,0,1-.11.89l-17.91,14.08A.65.65,0,0,1,299.82,390.62Z"/><path class="cls-1" d="M277.28,402.18a.66.66,0,0,1-.35-.11.64.64,0,0,1-.17-.89l13-19.2a.64.64,0,0,1,1.06.71l-13,19.21A.63.63,0,0,1,277.28,402.18Z"/><path class="cls-1" d="M254.54,390.62a.61.61,0,0,1-.39-.13.64.64,0,0,1-.12-.89l14.58-18.82a.63.63,0,0,1,1,.78L255,390.38A.62.62,0,0,1,254.54,390.62Z"/><path class="cls-1" d="M235.52,380.8a.68.68,0,0,1-.41-.14.65.65,0,0,1-.09-.9l15.17-18.62a.64.64,0,0,1,1,.8L236,380.56A.63.63,0,0,1,235.52,380.8Z"/><path class="cls-1" d="M214.5,374.22a.65.65,0,0,1-.43-.17.63.63,0,0,1,0-.9c16-17.58,16.19-17.58,16.56-17.58a.64.64,0,0,1,.32,1.19c-.87.74-10,10.68-15.94,17.25A.64.64,0,0,1,214.5,374.22Z"/><path class="cls-1" d="M203.47,389.69a.62.62,0,0,1-.53-.29.63.63,0,0,1,.17-.88l19.57-13.13a.63.63,0,1,1,.71,1.05l-19.57,13.14A.66.66,0,0,1,203.47,389.69Z"/><path class="cls-1" d="M210.07,406.81a.63.63,0,0,1-.51-.26.64.64,0,0,1,.13-.89l20.42-15a.64.64,0,0,1,.89.13.65.65,0,0,1-.14.89l-20.41,15A.68.68,0,0,1,210.07,406.81Z"/><path class="cls-1" d="M218.82,422a.66.66,0,0,1-.48-.22.63.63,0,0,1,0-.89l19.27-17.27a.64.64,0,1,1,.85.95l-19.27,17.26A.63.63,0,0,1,218.82,422Z"/><path class="cls-1" d="M226.24,404.23a.66.66,0,0,1-.51-.25.64.64,0,0,1,.12-.89l8.12-6.25a.63.63,0,0,1,.89.11.65.65,0,0,1-.12.9l-8.11,6.25A.65.65,0,0,1,226.24,404.23Z"/><path class="cls-1" d="M218.82,388.88a.63.63,0,0,1-.36-1.16l7.74-5.29a.64.64,0,1,1,.72,1.05l-7.74,5.29A.61.61,0,0,1,218.82,388.88Z"/><path class="cls-1" d="M235.05,364.21a.64.64,0,0,1-.39-.14.63.63,0,0,1-.11-.89l5.24-6.71a.64.64,0,1,1,1,.79l-5.24,6.7A.63.63,0,0,1,235.05,364.21Z"/><path class="cls-1" d="M254.54,373a.63.63,0,0,1-.41-.15.64.64,0,0,1-.08-.9l5.16-6.15a.64.64,0,1,1,1,.82L255,372.79A.65.65,0,0,1,254.54,373Z"/><path class="cls-1" d="M273.93,384.63a.58.58,0,0,1-.35-.11.63.63,0,0,1-.17-.88l5.09-7.59a.64.64,0,0,1,.89-.17.63.63,0,0,1,.17.88l-5.1,7.59A.63.63,0,0,1,273.93,384.63Z"/><path class="cls-1" d="M307.22,370.53a.65.65,0,0,1-.54-.3.62.62,0,0,1,.2-.87c2.81-1.79,7.39-4.71,7.72-5a.63.63,0,0,1,.79,1c-.42.34-6.6,4.26-7.83,5A.63.63,0,0,1,307.22,370.53Z"/><path class="cls-1" d="M298.09,351.35a.64.64,0,0,1-.32-1.19l7.35-4.25a.64.64,0,0,1,.64,1.1l-7.35,4.25A.62.62,0,0,1,298.09,351.35Z"/><path class="cls-1" d="M288,332.5a.66.66,0,0,1-.57-.34.64.64,0,0,1,.27-.86l8.11-4.26a.62.62,0,0,1,.85.26.63.63,0,0,1-.26.86l-8.11,4.26A.6.6,0,0,1,288,332.5Z"/></g></g></svg>